<?xml version="1.0" encoding="UTF-8" standalone="no"?>
<!-- Created with Inkscape (http://www.inkscape.org/) -->

<svg
   width="134.12463mm"
   height="134.12463mm"
   viewBox="0 0 134.12463 134.12463"
   version="1.1"
   id="svg1"
   xml:space="preserve"
   inkscape:version="1.4.2 (ebf0e940d0, 2025-05-08)"
   sodipodi:docname="logo.svg"
   xmlns:inkscape="http://www.inkscape.org/namespaces/inkscape"
   xmlns:sodipodi="http://sodipodi.sourceforge.net/DTD/sodipodi-0.dtd"
   xmlns:xlink="http://www.w3.org/1999/xlink"
   xmlns="http://www.w3.org/2000/svg"
   xmlns:svg="http://www.w3.org/2000/svg"><sodipodi:namedview
     id="namedview1"
     pagecolor="#d9d9d9"
     bordercolor="#ffffff"
     borderopacity="1"
     inkscape:showpageshadow="0"
     inkscape:pageopacity="0"
     inkscape:pagecheckerboard="0"
     inkscape:deskcolor="#272727"
     inkscape:document-units="mm"
     inkscape:zoom="1.3289679"
     inkscape:cx="219.34315"
     inkscape:cy="262.98604"
     inkscape:window-width="1916"
     inkscape:window-height="1161"
     inkscape:window-x="0"
     inkscape:window-y="18"
     inkscape:window-maximized="1"
     inkscape:current-layer="layer1" /><defs
     id="defs1"><linearGradient
       id="swatch59"><stop
         style="stop-color:#333333;stop-opacity:1;"
         offset="0.76049542"
         id="stop60" /><stop
         style="stop-color:#666666;stop-opacity:1;"
         offset="1"
         id="stop66" /></linearGradient><marker
       style="overflow:visible"
       id="ConcaveTriangle"
       refX="0"
       refY="0"
       orient="auto-start-reverse"
       inkscape:stockid="Concave triangle arrow"
       markerWidth="3"
       markerHeight="3"
       viewBox="0 0 1 1"
       inkscape:isstock="true"
       inkscape:collect="always"
       preserveAspectRatio="xMidYMid"
       markerUnits="userSpaceOnUse"><path
         transform="scale(0.7)"
         d="M -2,-4 9,0 -2,4 c 2,-2.33 2,-5.66 0,-8 z"
         style="fill:context-stroke;fill-rule:evenodd;stroke:none"
         id="path7" /></marker><inkscape:path-effect
       effect="fillet_chamfer"
       id="path-effect54"
       is_visible="true"
       lpeversion="1"
       nodesatellites_param="F,0,0,1,0,0,0,1 @ F,0,0,1,0,0,0,1 @ F,0,0,1,0,0,0,1 @ F,0,0,1,0,0,0,1 @ F,0,0,1,0,0,0,1 @ F,0,0,1,0,0,0,1 @ F,0,0,1,0,0,0,1 @ F,0,0,1,0,0,0,1 @ F,0,0,1,0,0,0,1 @ F,0,0,1,0,0,0,1 @ F,0,0,1,0,0,0,1"
       radius="0"
       unit="px"
       method="auto"
       mode="F"
       chamfer_steps="1"
       flexible="false"
       use_knot_distance="true"
       apply_no_radius="true"
       apply_with_radius="true"
       only_selected="false"
       hide_knots="false" /><linearGradient
       inkscape:collect="always"
       xlink:href="#swatch59"
       id="linearGradient66"
       gradientUnits="userSpaceOnUse"
       x1="12.5699"
       y1="135.51657"
       x2="146.69453"
       y2="135.51657" /></defs><g
     inkscape:label="Calque 1"
     inkscape:groupmode="layer"
     id="layer1"
     transform="translate(-12.5699,-68.454257)"><g
       id="terminal"
       inkscape:label="terminal"
       transform="translate(17.632306,36.124948)"
       style="display:inline"><g
         id="g69"
         inkscape:label="frame"><rect
           style="fill:#707070;fill-opacity:1;fill-rule:evenodd;stroke:#333333;stroke-width:2.465;stroke-linecap:butt;stroke-linejoin:round;stroke-dasharray:none;stroke-opacity:1"
           id="rect52"
           width="72.999855"
           height="41.06242"
           x="41.343159"
           y="98.075157"
           ry="3.7646062" /><rect
           style="fill:#333333;fill-rule:evenodd;stroke-width:0.203727"
           id="rect53"
           width="71.348099"
           height="9.2478714"
           x="42.212395"
           y="98.877953"
           ry="0" /></g><g
         id="g68"
         inkscape:label="prompt"
         transform="matrix(0.77600401,0,0,0.77600401,10.284962,33.592325)"><path
           style="fill:none;stroke:#ebebeb;stroke-width:0.859562;stroke-linecap:round;stroke-linejoin:round;stroke-dasharray:none;stroke-opacity:1"
           d="m 44.948544,117.13966 6.418095,6.41809 -6.352355,6.32085"
           id="path53"
           sodipodi:nodetypes="ccc" /><path
           style="fill:none;stroke:#ebebeb;stroke-width:0.732433;stroke-linecap:round;stroke-linejoin:round;stroke-dasharray:none;stroke-opacity:1"
           d="m 55.500805,132.41773 -8.69503,-0.0211"
           id="path56"
           sodipodi:nodetypes="cc" /></g><g
         id="g67"
         inkscape:label="scapex"
         transform="matrix(0.05361499,0,0,0.05361499,50.475474,118.01716)"><path
           style="display:inline;fill:#ebebeb;stroke:none;stroke-width:5.83416;stroke-dasharray:none;stroke-opacity:1"
           d="M -66.155227,20.689658 C -87.156596,19.716369 -97.190801,15.23586 -101.93209,4.7144295 c -1.29171,-2.8664249 -2.6884,-8.3767559 -2.28761,-9.0252474 0.13715,-0.2218496 0.96733,-0.8566422 1.84497,-1.4106629 l 1.59565,-1.0073009 h 84.956398 84.95638 l 1.468342,-2.0002705 1.468318,-2.0002528 v -13.154427 -13.154411 l -1.698655,-1.534774 -1.698655,-1.534776 -66.1854682,-0.229651 c -59.9748858,-0.20812 -66.6274238,-0.296306 -70.8953558,-0.939751 -13.791405,-2.079245 -21.097867,-6.040049 -25.058101,-13.583836 -3.058249,-5.825666 -4.00587,-12.550334 -4.009757,-28.455052 -0.0048,-19.822757 1.707635,-27.177027 7.73454,-33.215737 4.324216,-4.33267 10.085446,-6.74635 20.10464,-8.4229 3.953243,-0.6615 9.688893,-0.73108 71.0581937,-0.86192 47.7022303,-0.10175 68.1022343,-0.009 71.4677373,0.32211 16.877231,1.66437 27.581363,7.30889 32.432773,17.1025 l 1.27266,2.56919 -0.99943,2.55029 -0.99944,2.55028 -79.371542,0.10346 -79.371542,0.10347 -1.806141,1.297056 -1.806095,1.297059 0.0069,12.72924 0.0069,12.729255 1.824897,1.945385 1.824886,1.945397 h 64.473075 c 40.998114,0 66.017346,0.152787 68.7144,0.419792 13.476622,1.333846 22.136962,4.706346 26.656232,10.380435 2.17435,2.729974 4.13321,7.010656 5.08447,11.111088 0.68378,2.947466 0.7601,5.229817 0.7601,22.730419 0,22.0364808 -0.114,23.10566994 -3.13554,29.4231167 -2.21703,4.6352913 -5.45108,7.8705193 -10.176921,10.1806123 -6.448021,3.151937 -13.094263,4.424019 -26.351364,5.043618 -9.575935,0.44755 -128.343857,0.423891 -138.084013,-0.02751 z M 537.10133,7.5789955 l -9.80809,-13.5421227 -4.09557,-2.5330071 -4.09557,-2.5329907 -63.1333,-0.204777 -63.13325,-0.20479 10.66904,-13.105821 10.66902,-13.105836 42.37083,-0.204777 42.37085,-0.204776 1.01838,-2.545452 1.01839,-2.545452 -18.97964,-27.738992 c -10.43883,-15.256442 -19.03073,-27.856336 -19.09313,-27.999776 -0.13099,-0.30102 22.69295,-28.393216 23.21486,-28.573366 0.19047,-0.0659 3.75108,4.44962 7.91241,10.03416 4.16135,5.58453 29.06487,38.857478 55.34114,73.939859 26.27629,35.082381 47.77506,63.971529 47.77506,64.198097 0,0.271737 -8.54506,0.411941 -25.10667,0.411941 H 546.90943 Z M 196.57577,20.695758 c -26.41366,0 -36.1205,-7.755248 -38.5097,-25.944902 -0.29343,-2.2339456 -0.39502,-18.48662 -0.3101,-49.602606 l 0.12638,-46.27998 1.09822,-3.9947 c 1.40995,-5.12856 3.22642,-8.5188 6.11625,-11.41529 5.12801,-5.13984 12.95996,-7.84087 25.98673,-8.96215 3.7048,-0.31891 26.49551,-0.41272 76.14088,-0.31348 77.81492,0.15558 73.9389,0.0332 82.84228,2.61341 11.25271,3.26089 17.14257,9.96485 19.12224,21.76506 l 0.29202,1.740614 H 288.36059 207.2402 l -2.26052,1.446033 -2.26052,1.446033 v 42.946811 42.946808 l 2.48069,2.2966839 2.48068,2.2966829 h 80.18976 80.18975 l -0.17487,2.1501718 c -0.26008,3.19833937 -1.61551,8.4026162 -2.85331,10.955655 -2.61804,5.3998284 -8.67799,9.6438724 -16.66221,11.6692354 -9.51994,2.414931 -8.82761,2.393366 -79.71178,2.483013 -35.70314,0.04514 -63.29607,-0.243103 -67.2421,-0.243103 z m 726.82834,0.153153 c -0.15058,-0.150629 -0.27385,-22.1749425 -0.27385,-48.942928 v -48.669058 h 67.37233 67.37181 v 12.696289 12.696276 h -42.6229 -42.62292 l -2.21835,1.945397 -2.21823,1.945389 v 19.737088 19.7370885 l 2.25948,1.7646589 2.25937,1.7646749 74.63465,0.2047763 74.635,0.2047752 V 8.4248421 20.916339 l -99.146,0.103212 c -54.53033,0.05677 -99.26933,-0.02002 -99.41991,-0.170647 z M 646.67917,-50.459622 v -71.171168 l 2.85907,-2.13956 2.85908,-2.13959 h 84.48153 c 71.60177,0 85.26163,0.0914 89.59846,0.6001 17.21439,2.01879 26.0616,7.89634 29.35397,19.50095 0.67954,2.39521 0.74598,4.58081 0.74598,24.540701 0,19.669649 -0.074,22.183657 -0.7236,24.573437 -2.35534,8.665356 -7.70995,13.972291 -17.29691,17.142891 -4.55734,1.507192 -9.74063,2.386725 -17.20141,2.918827 -3.42276,0.244125 -30.02307,0.41042 -65.99679,0.412541 l -60.26303,0.003 -2.09209,1.880955 -2.09207,1.88097 v 26.583273 26.583261 h -22.11609 -22.1161 z m 157.67399,-12.107851 c 3.77732,-1.017888 5.92206,-2.400887 7.26432,-4.684274 l 1.13714,-1.934501 0.12627,-11.13041 c 0.0825,-7.275548 -0.0314,-11.716234 -0.32922,-12.821888 -0.9345,-3.470454 -4.36876,-5.959686 -9.66639,-7.006424 -1.73474,-0.34276 -17.2328,-0.52804 -54.88135,-0.65609 l -52.46397,-0.17842 -2.31431,2.115148 -2.31432,2.115157 v 15.203032 15.203028 l 2.35496,2.380783 2.35496,2.380771 53.03765,-0.134981 c 48.94465,-0.124663 53.24264,-0.190254 55.6942,-0.850878 z m 118.7771,-49.622297 v -13.72017 h 100.54624 100.5461 v 13.72017 13.720171 H 1023.6765 923.13026 Z"
           id="path66"
           sodipodi:nodetypes="cssscccccccccssscssssscccccccccccssssssssccccccccccccccsssssssccssscsssssscccccccccccsssssscscccccccccccccccccsccccccsssssssscccccccccscsssscccccccsscccccccccc" /><path
           d="m 304.22114,327.12539 c -1.68599,-2.64874 -3.02885,-4.91548 -2.98423,-5.03716 0.11202,-0.30507 9.69874,-9.36602 15.49085,-14.64134 78.14754,-71.17619 183.02537,-132.8238 301.03879,-176.95221 14.63476,-5.47228 31.69812,-11.51177 42.68624,-15.10854 24.32681,-7.96295 38.97494,-12.39883 63.70468,-19.291645 11.2971,-3.148769 30.55635,-8.072333 45.28109,-11.575975 71.06241,-16.908684 148.39057,-29.003073 226.40509,-35.410519 17.18935,-1.411801 44.01215,-3.230728 45.35615,-3.075717 0.387,0.04462 -3.0335,0.404112 -7.6004,0.798866 -23.9176,2.067384 -54.21899,5.99329 -81.73917,10.590313 -93.33058,15.59004 -184.98472,41.643092 -268.31291,76.269027 -116.3072,48.3299 -216.64129,113.30493 -296.62209,192.08847 l -6.25646,6.1629 -36.69123,-2.9e-4 -36.69104,-2.8e-4 z m 201.27875,-23.89096 c -21.67289,-15.78906 -39.49514,-28.78791 -39.60517,-28.88636 -0.47088,-0.42187 23.38343,-19.50048 39.19121,-31.34514 l 7.0739,-5.3005 1.22957,0.88566 c 3.6844,2.65356 116.74103,85.39573 116.93834,85.58294 0.13913,0.13137 -0.44846,1.77732 -1.4249,3.99704 l -1.66015,3.77379 h -41.16847 -41.16883 z m -153.23043,-111.64712 -45.06048,-32.85516 2.1688,-4.15184 2.16878,-4.15186 40.62676,-0.0658 40.62696,-0.0658 29.64082,21.70977 c 16.30267,11.94036 29.91293,21.91954 30.24556,22.17596 l 0.60459,0.46619 -7.09197,3.54714 c -12.90431,6.45452 -26.8445,13.86154 -39.13864,20.79635 -3.78213,2.13333 -7.51892,4.23228 -8.30382,4.66438 l -1.42707,0.78558 z M 1043.6581,45.797451 c 0.3946,-0.05963 0.9785,-0.05805 1.2976,0.0039 0.319,0.0616 0,0.11044 -0.7172,0.108465 -0.7137,-0.0013 -0.9747,-0.05226 -0.5804,-0.112019 z"
           style="display:inline;fill:#ebebeb;stroke:none;stroke-width:0.990604;stroke-dasharray:none;stroke-opacity:1"
           id="path1" /></g><g
         id="g71"
         inkscape:label="buttons"><circle
           style="fill:#806678;fill-rule:evenodd;stroke-width:0.352777"
           id="path69"
           cx="45.976574"
           cy="102.6776"
           r="1.8102493" /><circle
           style="fill:#806678;fill-rule:evenodd;stroke-width:0.352777"
           id="circle70"
           cx="51.268242"
           cy="102.6776"
           r="1.8102493" /><circle
           style="fill:#806678;fill-rule:evenodd;stroke-width:0.352777"
           id="circle71"
           cx="56.55991"
           cy="102.6776"
           r="1.8102493" /></g></g><g
       id="inkscape-logo"
       transform="matrix(0.20858107,0,0,0.20858107,-30.824862,23.103137)"
       inkscape:label="inkscape-logo"
       style="display:inline"><path
         d="M 469.453,259.826 362.405,369.368 c -36.169,44.789 24.615,39.578 50.672,52.48 9.346,9.554 -35.828,16.606 -26.48,26.169 9.346,9.554 56.52,18.406 65.883,27.959 9.346,9.556 -19.133,19.691 -9.785,29.246 9.346,9.554 30.965,0.5 35.013,22.557 2.885,15.763 38.957,6.774 56.6,-6.135 9.346,-9.563 -17.881,-8.661 -8.535,-18.217 23.244,-23.77 44.887,-8.637 52.839,-32.456 3.93,-11.769 -34.217,-18.143 -24.854,-27.698 26.894,-15.706 119.846,-25.928 75.741,-70.035 L 518.539,259.826 c -13.571,-13.03 -36.217,-13.172 -49.086,0 z m 122.962,211.146 c 0,5.435 40.043,8.996 40.043,-1.283 -5.706,-16.509 -35.31,-15.395 -40.043,1.283 z M 412.041,499.85 c 9.483,8.2 24.128,-2.039 28.52,-13.481 -9.189,-12.208 -43.58,0.438 -28.52,13.481 z m 175.353,-17.713 c -12.222,10.965 1.37,22.089 13.419,15.004 2.685,-2.724 -0.071,-12.278 -13.419,-15.004 z"
         id="path111"
         style="display:inline;fill:#333333"
         inkscape:label="black" /><g
         id="g113"
         style="display:inline"
         transform="translate(3.0708662e-6)"
         inkscape:label="white">
		<path
   style="fill:#ffffff"
   d="m 447.835,427.776 c 2.861,1.776 46.13,10.567 56.704,12.319 3.665,0.774 1.069,4.552 -3.985,7.1 -11.395,3.027 -66.664,-19.419 -52.719,-19.419 z"
   id="path112" />
		<path
   style="fill:#ffffff"
   d="m 516.068,267.507 42.354,43.013 c 4.015,4.104 3.959,12.056 1.713,14.343 l -21.03,-16.82 -4.135,24.909 -17.57,-9.276 -28.137,17.778 -9.315,-37.476 -15.117,26.154 h -23.107 c -9.419,0 -10.528,-11.954 -1.969,-20.511 14.948,-16.137 32.106,-32.583 41.428,-42.113 9.37,-9.58 25.698,-9.308 34.885,-10e-4 z"
   id="path113" />
	</g></g><g
       id="export-logo"
       inkscape:label="export-logo"
       style="display:inline"><path
         id="path54"
         style="fill:url(#linearGradient66);fill-rule:evenodd;stroke-width:0.264583"
         d="M 79.632473,68.454257 A 67.062325,67.062325 0 0 0 12.5699,135.51632 67.062325,67.062325 0 0 0 79.632473,202.57889 67.062325,67.062325 0 0 0 146.69453,135.51632 67.062325,67.062325 0 0 0 79.632473,68.454257 Z m 6.855396,2.994133 a 57.622108,57.622108 0 0 1 57.622321,57.62233 57.622108,57.622108 0 0 1 -57.622321,57.6218 57.622108,57.622108 0 0 1 -57.621806,-57.6218 57.622108,57.622108 0 0 1 57.621806,-57.62233 z"
         inkscape:label="circle" /><path
         style="fill:none;stroke:#333333;stroke-width:0;stroke-linecap:butt;stroke-linejoin:miter;stroke-dasharray:none;stroke-opacity:1;marker-end:url(#ConcaveTriangle)"
         d="m 108.21931,74.053427 5.47174,4.22036"
         id="path55"
         sodipodi:nodetypes="cc"
         inkscape:label="arrow" /></g></g></svg>
